# xmcd
# 
# Track frame offsets:
#     150
#     17717
#     34212
#     51767
# 
# Disc length: 906
# 
# Revision: 1
# Processed by: cddbd v1.5.2PL0 Copyright (c) Steve Scherf et al.
# Submitted via: fre:ac v1.0.17
# 
DISCID=2b038804
DTITLE=後ろから這いより隊G - 這いよれOnce Nagain - きっとエンゲージ
DYEAR=2015
DGENRE=Anime
TTITLE0=這いよれOnce Nyagain
TTITLE1=きっとエンゲージ
TTITLE2=這いよれOnce Nyagain(off vocal)
TTITLE3=きっとエンゲージ(off vocal)
EXTD=YEAR: 2015
EXTT0=
EXTT1=
EXTT2=
EXTT3=
PLAYORDER=
